<?xml version="1.0" encoding="UTF-8"?>
<svg id="Layer_1" xmlns="http://www.w3.org/2000/svg" viewBox="0 0 708.27 909.71">
  <path d="M422.63.15h44.08v773.2h-44.08V.15Z"/>
  <path d="M104.38,773.36h-43.82V.19h43.82v773.17Z"/>
  <path d="M164.78,773.34h-44V.15h44v773.2h0Z"/>
  <path d="M376.07,773.38h-43.85V.22h43.85v773.17h0Z"/>
  <path d="M543.67.14h43.76v773.2h-43.76V.14Z"/>
  <path d="M647.77,773.39h-43.87V.21h43.87v773.18Z"/>
  <path d="M301.94,0h11.38c.77,0,1.54.09,2.44.15v773.14h-13.82V0Z"/>
  <path d="M13.63,773.37H0V.17h13.63v773.21h0Z"/>
  <path d="M43.89,773.48h-13.74V.17h13.74v773.31Z"/>
  <path d="M225.13,773.37h-13.58V.16h13.58v773.21Z"/>
  <path d="M241.52.16h13.4c.65,2.37.98,763.02.33,773.15h-13.73V.16Z"/>
  <path d="M271.67.16h13.66v773.13h-13.66V.16Z"/>
  <path d="M496.74,773.37h-13.57V.17h13.57v773.19h0Z"/>
  <path d="M664.27,0h11.34c.77,0,1.54.1,2.41.16v773.12h-13.74V0h-.01Z"/>
  <path d="M694.65.15h13.62v773.33h-13.61V.15h-.01Z"/>
  <path d="M392.8,886.03c1.19,1.26,2.3,2.52,3.5,3.69,2.93,2.84,5.96,5.57,8.84,8.45,3.73,3.74,2.5,8.9-2.46,10.67-.37.13-.77.21-1.15.31-4.51,1.26-8.31.49-11.55-3.24-2.66-3.06-5.75-5.75-8.77-8.72-.82.37-1.71.75-2.59,1.17-10.04,4.79-20.57,6.02-31.41,3.93-10.21-1.97-17.84-7.67-23.32-16.57-8.37-13.6-9.92-28.06-6.09-43.3,1.2-4.76,3.38-9.13,5.98-13.26,5.62-8.92,13.88-14.04,24.06-16.16,3.38-.7,6.85-1.13,10.3-1.36,6.06-.41,11.85,1.1,17.48,3.13,8.12,2.91,13.99,8.61,18.47,15.78,3.06,4.9,5.51,10.12,6.71,15.83,2.65,12.59.87,24.5-5.6,35.66-.7,1.2-1.44,2.38-2.41,3.99h0ZM380.54,874.75c.59-1.55,1.13-2.53,1.33-3.57.73-3.9,1.69-7.79,1.92-11.73.43-7.41-.57-14.7-3.81-21.49-3.02-6.33-7.69-10.78-14.75-12.33-4.43-.97-8.88-1.15-13.31-.11-3.54.83-6.79,2.3-9.28,5.06-3.12,3.45-5.24,7.46-6.36,11.98-1.77,7.12-2.08,14.34-1.46,21.61.4,4.67,1.2,9.26,3.24,13.54,2.71,5.68,6.98,9.59,13.04,11.37,3.48,1.02,7.08,1.1,10.65.62,2.8-.38,5.59-.94,8.32-2.7-1.79-1.79-3.37-3.41-5.01-4.98-3.81-3.64-7.66-7.24-11.48-10.87-2.27-2.15-2.85-5.18-1.43-7.22,2.26-3.24,7.21-5.08,11.1-4.14,1.68.4,3.13,1.12,4.38,2.36,4.15,4.12,8.37,8.17,12.92,12.59h-.01Z"/>
  <path d="M587.46,895.66h46.22c1.49,0,3,0,4.47.2,3.89.53,5.92,2.89,5.83,6.62-.09,3.86-2.08,6.06-5.95,6.53-.98.12-1.99.13-2.98.13-21.09,0-42.19.02-63.28-.02-1.86,0-3.8-.18-5.58-.7-2.87-.83-4.11-3.15-3.37-6.04.34-1.31.97-2.62,1.74-3.74,6.35-9.14,12.77-18.24,19.16-27.36,9.06-12.95,18.12-25.9,27.16-38.87.79-1.14,1.48-2.35,2.43-3.86-1.02-.08-1.84-.19-2.65-.19-12.94-.01-25.87.02-38.81-.04-1.67,0-3.4-.19-4.98-.68-2.76-.85-3.88-3.09-3.71-6.71.12-2.69,1.46-4.42,4.2-5.06,1.53-.36,3.15-.53,4.72-.54,19.1-.04,38.21-.03,57.31,0,1.28,0,2.58.17,3.85.39,4.36.76,5.03,3.64,4.33,7.01-.19.94-.74,1.85-1.3,2.65-4.59,6.61-9.23,13.2-13.85,19.79-9.47,13.51-18.95,27.02-28.41,40.53-1.94,2.77-3.83,5.57-5.73,8.36-.25.37-.43.81-.83,1.58v.02Z"/>
  <path d="M129.28,826.87v73.69c0,.7,0,1.39,0,2.09-.08,4.39-1.31,6.12-5.59,6.59-2.71.3-5.57.07-8.26-.45-3.04-.59-4.26-2.56-4.27-5.94-.04-6.86-.01-13.73-.01-20.59v-55.25c-1.14-.05-2.19-.13-3.23-.13-7.96-.01-15.92,0-23.88-.02-1.39,0-2.8-.06-4.15-.32-3.49-.67-5.34-3.17-5.28-6.88.06-3.25,1.67-5.06,5.29-5.73,1.36-.25,2.76-.37,4.14-.37,24.08-.02,48.15-.02,72.23,0,1.48,0,2.99.13,4.43.44,3.54.75,5.43,3.32,5.23,6.9-.18,3.28-2.1,5.23-5.75,5.73-1.28.18-2.58.23-3.87.23-7.96.02-15.92.01-23.88.01h-3.15Z"/>
</svg>